<svg xmlns="http://www.w3.org/2000/svg" width="180.656" height="55.12"><defs><filter id="a" x="376.344" y="6431" width="63.031" height="55.12" filterUnits="userSpaceOnUse"><feFlood result="flood" flood-color="#fff"/><feComposite result="composite" operator="in" in2="SourceGraphic"/><feBlend result="blend" in2="SourceGraphic"/></filter></defs><path d="M413.108 6441.71H402.6l5.254 9.2zm-11.822.77l-5.254 9.19h10.508zm18.39 9.19l-5.254-9.19-5.254 9.19h10.508zm-10.508 1.53l5.254 9.19 5.254-9.19h-10.508zm-13.136 0l5.254 9.19 5.254-9.19h-10.508zm-6.567 9.95h10.506l-5.253-9.18zm36.778 0l-5.253-9.18-5.252 9.18h10.5zm-18.389-32.16l-5.254 9.19h10.508zm13.136 42.88l5.253-9.18h-10.5zm-26.272 0l5.253-9.18h-10.506zm-11.821.77H393.4l-5.253-9.19zm49.914 0l-5.254-9.19-5.254 9.19h10.508zm-10.508 1.53l5.254 9.19 5.254-9.19H422.3zm-13.135 0l5.254 9.19 5.254-9.19h-10.508zm-21.017 9.19l5.253-9.19H382.9zm-11.82.77h10.5l-5.254-9.19zm26.269 0h10.508l-5.254-9.19zm13.138 0h10.5l-5.253-9.19zm18.387-9.19l-5.252 9.19h10.5z" transform="translate(-376.344 -6431)" fill-rule="evenodd" filter="url(#a)"/><text x="182.656" y="39" font-size="34" fill="#fff" text-anchor="end" font-family="Raleway">Waxom</text></svg>